<?xml version="1.0" encoding="UTF-8" standalone="no"?>
<svg
   xmlns:dc="http://purl.org/dc/elements/1.1/"
   xmlns:cc="http://creativecommons.org/ns#"
   xmlns:rdf="http://www.w3.org/1999/02/22-rdf-syntax-ns#"
   xmlns:svg="http://www.w3.org/2000/svg"
   xmlns="http://www.w3.org/2000/svg"
   viewBox="0 0 2778.2653 514.28413"
   version="1.1"
   id="svg4"
   width="2778.2654"
   height="514.28412">
  <metadata
     id="metadata10">
    <rdf:RDF>
      <cc:Work
         rdf:about="">
        <dc:format>image/svg+xml</dc:format>
        <dc:type
           rdf:resource="http://purl.org/dc/dcmitype/StillImage" />
        <dc:title></dc:title>
      </cc:Work>
    </rdf:RDF>
  </metadata>
  <defs
     id="defs8" />
  <!--! Font Awesome Free 6.2.0 by @fontawesome - https://fontawesome.com License - https://fontawesome.com/license/free (Icons: CC BY 4.0, Fonts: SIL OFL 1.1, Code: MIT License) Copyright 2022 Fonticons, Inc. -->
  <path
     style="fill:#00aad4"
     d="m 292.75644,18 c -5.3,-11 -16.5,-18 -28.8,-18 -12.3,0 -23.4,7 -28.8,18 l -64.3,132.3 -143.599995,21.2 c -12,1.8 -22.0000002,10.2 -25.7000002,21.7 -3.7,11.5 -0.70000008,24.2 7.9,32.7 L 113.65644,329 89.056445,474.7 c -2,12 3,24.2 12.899995,31.3 9.9,7.1 23,8 33.8,2.3 l 128.3,-68.5 128.3,68.5 c 10.8,5.7 23.9,4.9 33.8,-2.3 9.9,-7.2 14.9,-19.3 12.9,-31.3 l -24.7,-145.7 104.2,-103.1 c 8.6,-8.5 11.7,-21.2 7.9,-32.7 -3.8,-11.5 -13.7,-19.9 -25.7,-21.7 l -143.7,-21.2 z"
     id="path2" />
  <path
     style="fill:#00aad4"
     d="m 855.0253,20.14083 c -5.3,-10.9999998 -16.5,-17.9999998 -28.8,-17.9999998 -12.3,0 -23.4,7 -28.8,17.9999998 l -64.3,132.3 -143.6,21.2 c -12,1.8 -22,10.2 -25.7,21.7 -3.7,11.5 -0.7,24.2 7.9,32.7 l 104.2,103.1 -24.6,145.7 c -2,12 3,24.2 12.9,31.3 9.9,7.1 23,8 33.8,2.3 l 128.3,-68.5 128.3,68.5 c 10.8,5.7 23.90004,4.9 33.80004,-2.3 9.9,-7.2 14.89996,-19.3 12.89996,-31.3 l -24.69996,-145.7 104.19986,-103.1 c 8.6,-8.5 11.7,-21.2 7.9,-32.7 -3.8,-11.5 -13.7,-19.9 -25.7,-21.7 l -143.6999,-21.2 z"
     id="path2-3" />
  <path
     style="fill:#00aad4"
     d="m 1415.5079,20.169461 c -5.3,-10.9999997 -16.5,-17.9999997 -28.8,-17.9999997 -12.3,0 -23.4,7 -28.8,17.9999997 l -64.3,132.299999 -143.6,21.2 c -12,1.8 -22,10.2 -25.7,21.7 -3.7,11.5 -0.7,24.2 7.9,32.7 l 104.2,103.1 -24.6,145.7 c -2,12 3,24.2 12.9,31.3 9.9,7.1 23,8 33.8,2.3 l 128.3,-68.5 128.3,68.5 c 10.8,5.7 23.9001,4.9 33.8001,-2.3 9.9,-7.2 14.8999,-19.3 12.8999,-31.3 l -24.6999,-145.7 104.1998,-103.1 c 8.6,-8.5 11.7,-21.2 7.9,-32.7 -3.8,-11.5 -13.7,-19.9 -25.7,-21.7 l -143.6999,-21.2 z"
     id="path2-3-6" />
  <path
     style="fill:#00aad4"
     d="m 1981.2368,20.198147 c -5.3,-10.9999998 -16.5,-17.9999998 -28.8,-17.9999998 -12.3,0 -23.4,7 -28.8,17.9999998 l -64.3,132.300003 -143.6,21.19999 c -12,1.8 -22,10.2 -25.7,21.7 -3.7,11.5 -0.7,24.2 7.9,32.7 l 104.2,103.1 -24.6,145.7 c -2,12 3,24.2 12.9,31.3 9.9,7.1 23,8 33.8,2.3 l 128.3,-68.5 128.3,68.5 c 10.8,5.7 23.9001,4.9 33.8001,-2.3 9.9,-7.2 14.8999,-19.3 12.8999,-31.3 l -24.6999,-145.7 104.1998,-103.1 c 8.6,-8.5 11.7,-21.2 7.9,-32.7 -3.8,-11.5 -13.7,-19.9 -25.7,-21.7 l -143.6999,-21.19999 z"
     id="path2-3-6-7" />
  <path
     style="fill:#00aad4"
     d="m 2542.9655,20.226778 c -5.3,-10.9999995 -16.5,-17.9999995 -28.8,-17.9999995 -12.3,0 -23.4,7 -28.8,17.9999995 l -64.3,132.300002 -143.6,21.19999 c -12,1.8 -22,10.2 -25.7,21.7 -3.7,11.5 -0.7,24.2 7.9,32.7 l 104.2,103.1 -24.6,145.7 c -2,12 3,24.2 12.9,31.3 9.9,7.1 23,8 33.8,2.3 l 128.3,-68.5 128.3,68.5 c 10.8,5.7 23.9001,4.9 33.8001,-2.3 9.9,-7.2 14.8999,-19.3 12.8999,-31.3 l -24.6999,-145.7 104.1998,-103.1 c 8.6,-8.5 11.7,-21.2 7.9,-32.7 -3.8,-11.5 -13.7,-19.9 -25.7,-21.7 l -143.6999,-21.19999 z"
     id="path2-3-6-7-5" />
</svg>
